{
  "accessors": [
    {
      "bufferView": 2,
      "componentType": 5126,
      "count": 50370,
      "max": [
        1.5952122211456299,
        3.6035473346710205,
        3.4478111267089844
      ],
      "min": [
        -1.6296918392181396,
        -3.603480339050293,
        -0.011152863502502441
      ],
      "type": "VEC3"
    },
    {
      "bufferView": 2,
      "byteOffset": 604440,
      "componentType": 5126,
      "count": 50370,
      "max": [
        0.9999970197677612,
        1.0,
        1.0
      ],
      "min": [
        -0.9999221563339233,
        -1.0,
        -1.0
      ],
      "type": "VEC3"
    },
    {
      "bufferView": 3,
      "componentType": 5126,
      "count": 50370,
      "max": [
        0.999983549118042,
        1.0,
        0.9999945163726807,
        1.0
      ],
      "min": [
        -0.9999917149543762,
        -1.0,
        -0.9999798536300659,
        -1.0
      ],
      "type": "VEC4"
    },
    {
      "bufferView": 1,
      "componentType": 5126,
      "count": 50370,
      "max": [
        0.9999999403953552,
        0.9995929598808289
      ],
      "min": [
        0.0,
        0.0
      ],
      "type": "VEC2"
    },
    {
      "bufferView": 0,
      "componentType": 5125,
      "count": 259008,
      "type": "SCALAR"
    },
    {
      "bufferView": 2,
      "byteOffset": 1208880,
      "componentType": 5126,
      "count": 6774,
      "max": [
        1.1033141613006592,
        3.344590663909912,
        3.2618396282196045
      ],
      "min": [
        -1.3366615772247314,
        -3.258901596069336,
        1.2774617671966553
      ],
      "type": "VEC3"
    },
    {
      "bufferView": 2,
      "byteOffset": 1290168,
      "componentType": 5126,
      "count": 6774,
      "max": [
        1.0,
        1.0,
        0.9999947547912598
      ],
      "min": [
        -0.9999653100967407,
        -1.0,
        -0.9999947547912598
      ],
      "type": "VEC3"
    },
    {
      "bufferView": 3,
      "byteOffset": 805920,
      "componentType": 5126,
      "count": 6774,
      "max": [
        0.9995805025100708,
        1.0,
        0.9999851584434509,
        1.0
      ],
      "min": [
        -0.9999973773956299,
        -1.0,
        -0.9999887347221375,
        -1.0
      ],
      "type": "VEC4"
    },
    {
      "bufferView": 1,
      "byteOffset": 402960,
      "componentType": 5126,
      "count": 6774,
      "max": [
        0.9991040229797363,
        0.8574084043502808
      ],
      "min": [
        0.0008959515253081918,
        0.0008959515253081918
      ],
      "type": "VEC2"
    },
    {
      "bufferView": 0,
      "byteOffset": 1036032,
      "componentType": 5125,
      "count": 20910,
      "type": "SCALAR"
    },
    {
      "bufferView": 2,
      "byteOffset": 1371456,
      "componentType": 5126,
      "count": 3508,
      "max": [
        1.247565746307373,
        3.6252024173736572,
        3.356400489807129
      ],
      "min": [
        -1.311354160308838,
        -3.6250805854797363,
        1.3487024307250977
      ],
      "type": "VEC3"
    },
    {
      "bufferView": 2,
      "byteOffset": 1413552,
      "componentType": 5126,
      "count": 3508,
      "max": [
        0.9998664855957031,
        1.0,
        1.0
      ],
      "min": [
        -0.9998265504837036,
        -1.0,
        -1.0
      ],
      "type": "VEC3"
    },
    {
      "bufferView": 3,
      "byteOffset": 914304,
      "componentType": 5126,
      "count": 3508,
      "max": [
        1.0,
        1.0,
        0.9996598958969116,
        1.0
      ],
      "min": [
        -0.9999945759773254,
        -1.0,
        -0.9999994039535522,
        -1.0
      ],
      "type": "VEC4"
    },
    {
      "bufferView": 1,
      "byteOffset": 457152,
      "componentType": 5126,
      "count": 3508,
      "max": [
        0.9623890519142151,
        1.0
      ],
      "min": [
        0.0,
        0.0
      ],
      "type": "VEC2"
    },
    {
      "bufferView": 0,
      "byteOffset": 1119672,
      "componentType": 5125,
      "count": 13524,
      "type": "SCALAR"
    }
  ],
  "asset": {
    "extras": {
      "author": "SomeKevin (https://sketchfab.com/SomeKevin)",
      "license": "CC-BY-4.0 (http://creativecommons.org/licenses/by/4.0/)",
      "source": "https://sketchfab.com/3d-models/fancy-bench-82cadef8dfb24c0784eefff7be71610c",
      "title": "Fancy Bench"
    },
    "generator": "Sketchfab-12.67.0",
    "version": "2.0"
  },
  "bufferViews": [
    {
      "buffer": 0,
      "byteLength": 1173768,
      "name": "floatBufferViews",
      "target": 34963
    },
    {
      "buffer": 0,
      "byteLength": 485216,
      "byteOffset": 1173768,
      "byteStride": 8,
      "name": "floatBufferViews",
      "target": 34962
    },
    {
      "buffer": 0,
      "byteLength": 1455648,
      "byteOffset": 1658984,
      "byteStride": 12,
      "name": "floatBufferViews",
      "target": 34962
    },
    {
      "buffer": 0,
      "byteLength": 970432,
      "byteOffset": 3114632,
      "byteStride": 16,
      "name": "floatBufferViews",
      "target": 34962
    }
  ],
  "buffers": [
    {
      "byteLength": 4085064,
      "uri": "scene.bin"
    }
  ],
  "images": [
    {
      "uri": "textures/medl1_baseColor.png"
    },
    {
      "uri": "textures/medl1_metallicRoughness.png"
    },
    {
      "uri": "textures/medl1_normal.png"
    },
    {
      "uri": "textures/medl2_baseColor.png"
    },
    {
      "uri": "textures/medl2_metallicRoughness.png"
    },
    {
      "uri": "textures/medl2_normal.png"
    },
    {
      "uri": "textures/hozl_baseColor.png"
    },
    {
      "uri": "textures/hozl_metallicRoughness.png"
    },
    {
      "uri": "textures/hozl_normal.png"
    }
  ],
  "materials": [
    {
      "doubleSided": true,
      "name": "medl1",
      "normalTexture": {
        "index": 2
      },
      "pbrMetallicRoughness": {
        "baseColorTexture": {
          "index": 0
        },
        "metallicRoughnessTexture": {
          "index": 1
        }
      }
    },
    {
      "doubleSided": true,
      "name": "medl2",
      "normalTexture": {
        "index": 5
      },
      "pbrMetallicRoughness": {
        "baseColorTexture": {
          "index": 3
        },
        "metallicRoughnessTexture": {
          "index": 4
        }
      }
    },
    {
      "doubleSided": true,
      "name": "hozl",
      "normalTexture": {
        "index": 8
      },
      "pbrMetallicRoughness": {
        "baseColorTexture": {
          "index": 6
        },
        "metallicRoughnessTexture": {
          "index": 7
        }
      }
    }
  ],
  "meshes": [
    {
      "name": "Plane.010_medl1_0",
      "primitives": [
        {
          "attributes": {
            "NORMAL": 1,
            "POSITION": 0,
            "TANGENT": 2,
            "TEXCOORD_0": 3
          },
          "indices": 4,
          "material": 0,
          "mode": 4
        }
      ]
    },
    {
      "name": "Plane.010_medl2_0",
      "primitives": [
        {
          "attributes": {
            "NORMAL": 6,
            "POSITION": 5,
            "TANGENT": 7,
            "TEXCOORD_0": 8
          },
          "indices": 9,
          "material": 1,
          "mode": 4
        }
      ]
    },
    {
      "name": "Plane.010_hozl_0",
      "primitives": [
        {
          "attributes": {
            "NORMAL": 11,
            "POSITION": 10,
            "TANGENT": 12,
            "TEXCOORD_0": 13
          },
          "indices": 14,
          "material": 2,
          "mode": 4
        }
      ]
    }
  ],
  "nodes": [
    {
      "children": [
        1
      ],
      "matrix": [
        1.0,
        0.0,
        0.0,
        0.0,
        0.0,
        2.220446049250313e-16,
        -1.0,
        0.0,
        0.0,
        1.0,
        2.220446049250313e-16,
        0.0,
        0.0,
        0.0,
        0.0,
        1.0
      ],
      "name": "Sketchfab_model"
    },
    {
      "children": [
        2
      ],
      "matrix": [
        0.009999999776482582,
        0.0,
        0.0,
        0.0,
        0.0,
        0.0,
        0.009999999776482582,
        0.0,
        0.0,
        -0.009999999776482582,
        0.0,
        0.0,
        0.0,
        0.0,
        0.0,
        1.0
      ],
      "name": "76d6c1a3f21342c0a41bb7f54a12345a.fbx"
    },
    {
      "children": [
        3
      ],
      "name": "RootNode"
    },
    {
      "children": [
        4,
        5,
        6
      ],
      "matrix": [
        100.0,
        0.0,
        0.0,
        0.0,
        0.0,
        -1.629206793918314e-05,
        -99.99999999999868,
        0.0,
        0.0,
        99.99999999999868,
        -1.629206793918314e-05,
        0.0,
        0.0,
        0.0,
        0.0,
        1.0
      ],
      "name": "Plane.010"
    },
    {
      "mesh": 0,
      "name": "Plane.010_medl1_0"
    },
    {
      "mesh": 1,
      "name": "Plane.010_medl2_0"
    },
    {
      "mesh": 2,
      "name": "Plane.010_hozl_0"
    }
  ],
  "samplers": [
    {
      "magFilter": 9729,
      "minFilter": 9987,
      "wrapS": 10497,
      "wrapT": 10497
    }
  ],
  "scene": 0,
  "scenes": [
    {
      "name": "Sketchfab_Scene",
      "nodes": [
        0
      ]
    }
  ],
  "textures": [
    {
      "sampler": 0,
      "source": 0
    },
    {
      "sampler": 0,
      "source": 1
    },
    {
      "sampler": 0,
      "source": 2
    },
    {
      "sampler": 0,
      "source": 3
    },
    {
      "sampler": 0,
      "source": 4
    },
    {
      "sampler": 0,
      "source": 5
    },
    {
      "sampler": 0,
      "source": 6
    },
    {
      "sampler": 0,
      "source": 7
    },
    {
      "sampler": 0,
      "source": 8
    }
  ]
}
